HIERARCHY
ROOT hip
{
	OFFSET 0.000000 0.000000 0.000000 
	CHANNELS 6 Xposition Yposition Zposition Xrotation Zrotation Yrotation
	JOINT abdomen
	{
		OFFSET 0.000000 3.402643 0.000000 
		CHANNELS 3 Xrotation Zrotation Yrotation
		JOINT chest
		{
			OFFSET 0.000000 8.438565 -0.680529 
			CHANNELS 3 Xrotation Zrotation Yrotation
			JOINT neck
			{
				OFFSET 0.000000 10.207942 -0.272212 
				CHANNELS 3 Xrotation Zrotation Yrotation
				JOINT head
				{
					OFFSET 0.000000 3.130431 0.000000 
					CHANNELS 3 Xrotation Zrotation Yrotation
					End Site
					{
						OFFSET 0.000000 3.130435 0.000000 
					}
				}
			}
			JOINT lCollar
			{
				OFFSET 3.470700 6.669187 -0.816635 
				CHANNELS 3 Yrotation Zrotation Xrotation
				JOINT lShldr
				{
					OFFSET 3.198488 0.000000 0.000000 
					CHANNELS 3 Zrotation Yrotation Xrotation
					JOINT lForeArm
					{
						OFFSET 10.139888 0.000000 0.000000 
						CHANNELS 3 Yrotation Zrotation Xrotation
						JOINT lHand
						{
							OFFSET 8.370511 0.000000 0.000000 
							CHANNELS 3 Zrotation Yrotation Xrotation
							End Site
							{
								OFFSET 4.083176 0.000000 0.000000 
							}
						}
					}
				}
			}
			JOINT rCollar
			{
				OFFSET -3.470700 6.669187 -0.816635 
				CHANNELS 3 Yrotation Zrotation Xrotation
				JOINT rShldr
				{
					OFFSET -3.198488 0.000000 0.000000 
					CHANNELS 3 Zrotation Yrotation Xrotation
					JOINT rForeArm
					{
						OFFSET -10.139888 0.000000 0.000000 
						CHANNELS 3 Yrotation Zrotation Xrotation
						JOINT rHand
						{
							OFFSET -8.370511 0.000000 0.000000 
							CHANNELS 3 Zrotation Yrotation Xrotation
							End Site
							{
								OFFSET -4.083176 0.000000 0.000000 
							}
						}
					}
				}
			}
		}
	}
	JOINT lThigh
	{
		OFFSET 5.308129 -1.633274 1.361059 
		CHANNELS 3 Xrotation Zrotation Yrotation
		JOINT lShin
		{
			OFFSET -2.041588 -20.007561 0.000000 
			CHANNELS 3 Xrotation Zrotation Yrotation
			JOINT lFoot
			{
				OFFSET 0.000000 -19.190928 -1.224953 
				CHANNELS 3 Xrotation Yrotation Zrotation
				End Site
				{
					OFFSET 0.000000 -2.449906 4.627600 
				}
			}
		}
	}
	JOINT rThigh
	{
		OFFSET -5.308129 -1.633274 1.361059 
		CHANNELS 3 Xrotation Zrotation Yrotation
		JOINT rShin
		{
			OFFSET 2.041588 -20.007561 0.000000 
			CHANNELS 3 Xrotation Zrotation Yrotation
			JOINT rFoot
			{
				OFFSET 0.000000 -19.190928 -1.224953 
				CHANNELS 3 Xrotation Yrotation Zrotation
				End Site
				{
					OFFSET 0.000000 -2.449906 4.627600 
				}
			}
		}
	}
}
MOTION
Frames: 11
Frame Time: 0.033333
153.979568 49.091553 -49.534752 15.353675 23.229988 112.726982 48.585564 17.637650 3.984928 -20.839844 0.000000 0.000000 -14.923566 0.683437 -11.751758 8.586096 -4.084739 0.307924 -4.754608 -0.109225 -0.002657 -0.418892 -81.512451 -2.972917 -50.261932 -61.611641 61.955357 8.219369 -17.380800 35.442242 4.754608 0.109225 -0.002676 82.620071 15.913309 34.673843 83.123917 55.109333 -20.412292 35.885391 6.589964 -36.736736 22.295628 -2.030131 -0.893603 41.311470 -7.437607 -2.069906 -4.087564 -5.413350 -5.430527 7.922544 -20.433844 -31.554777 20.962910 15.800811 -20.964157 -1.980279 3.922324 -16.088875 
155.229996 49.076775 -50.710735 14.542750 25.268444 104.066383 51.355885 20.169971 2.414621 -20.839844 0.000000 0.000000 -16.783590 -2.024875 -0.872208 8.586096 -4.084739 0.307924 -4.754608 -0.109225 -0.002657 -22.911047 -84.530571 18.397987 -51.924541 -63.962646 58.376404 9.807163 -18.536016 31.364796 4.754608 0.109225 -0.002676 78.711090 16.152510 33.929928 98.058548 56.310406 -27.094902 34.783577 13.977362 -26.070896 19.391785 -2.518515 1.522533 47.677017 -10.579904 -3.641988 10.080507 -10.636605 -5.121880 7.144720 -22.272295 -29.964432 25.529720 15.027116 -14.889459 -4.398648 6.365941 -16.154362 
156.653534 49.352829 -51.811779 12.344209 27.436560 94.063072 54.841599 22.185434 1.416616 -20.839844 0.000000 0.000000 -18.248869 -3.119291 8.876692 8.586096 -4.084739 0.307924 -4.754608 -0.109225 -0.002657 -79.193092 -87.208405 73.155556 -54.944393 -65.211235 53.503815 11.181775 -19.938974 27.719866 4.754608 0.109225 -0.002676 75.438904 16.147072 32.956024 108.354843 55.769672 -30.111698 31.796949 22.958931 -15.584875 16.785591 -2.499619 3.250870 51.666779 -12.585650 -5.380764 16.791842 -13.760981 -0.599728 7.533499 -22.826496 -28.854353 27.159487 14.188001 -10.005851 -5.113873 10.266004 -17.021885 
158.363678 49.964050 -52.630951 8.697045 28.762600 82.600365 58.140194 23.229801 0.998294 -20.839844 0.000000 0.000000 -18.489109 -3.055435 17.980621 8.586096 -4.084739 0.307924 -4.754608 -0.109225 -0.002657 32.239861 -95.121376 -39.983395 -56.637287 -65.325333 50.874249 13.007532 -21.469927 25.654184 4.754608 0.109225 -0.002676 73.824211 14.250051 31.864143 112.495193 55.318466 -27.727314 26.017540 29.027584 -6.790433 14.930464 -1.688915 4.584112 51.931774 -13.122681 -3.999222 14.305703 -11.935659 2.176676 8.784493 -22.016891 -27.979212 25.751413 13.280827 -6.398080 -4.566161 15.203253 -19.135086 
160.252213 50.680309 -53.094391 4.952996 27.685156 70.590668 58.859348 23.018541 -0.503970 -20.839844 0.000000 0.000000 -17.155756 -1.953191 27.628101 8.586096 -4.084739 0.307924 -4.754608 -0.109225 -0.002657 13.144890 -98.426613 -22.052504 -57.835693 -64.957527 50.878643 15.377066 -22.176382 26.823429 4.754608 0.109225 -0.002676 73.818703 11.852599 30.847792 115.425034 54.439873 -27.734148 19.263218 26.923176 -5.772133 12.465101 -0.389560 5.725154 48.749821 -12.670354 0.285628 8.193388 -6.477066 4.673404 8.676189 -20.825033 -27.057665 23.166254 12.461446 -3.446004 -3.489957 20.494959 -20.981632 
162.143951 51.271999 -53.248505 2.704139 24.477871 59.090260 56.851528 21.715551 -2.859249 -20.839844 0.000000 0.000000 -14.975007 -0.648939 37.040260 8.586096 -4.084739 0.307924 -4.754608 -0.109225 -0.002657 -2.362708 -100.010010 -7.091407 -60.043858 -63.264107 51.646103 17.239082 -23.157444 30.942963 4.754608 0.109225 -0.002676 73.705978 10.408115 29.383286 118.962440 52.342712 -32.523853 15.584198 19.697033 -11.345145 8.778864 0.488541 6.050899 43.298199 -11.499914 4.686344 2.821011 -1.182871 9.487741 6.077560 -19.973375 -25.588110 21.385309 11.918839 -0.221214 -2.179904 25.298111 -22.234615 
163.948578 51.636196 -53.083832 1.650706 20.812412 48.177902 54.412067 19.814608 -4.189858 -20.839844 0.000000 0.000000 -12.853858 -0.005922 44.261959 8.586096 -4.084739 0.307924 -4.754608 -0.109225 -0.002657 -25.381525 -100.262672 16.030396 -63.922253 -60.079765 51.358585 18.529600 -24.098186 36.318665 4.754608 0.109225 -0.002676 72.831856 11.006693 27.438803 120.407776 49.310452 -37.795021 15.810901 11.573097 -20.011669 5.268007 1.317990 5.789860 36.852539 -9.823936 7.310053 -0.895754 1.956701 13.105356 2.184368 -18.783476 -22.728910 20.828156 11.156969 3.365658 -1.412436 28.444920 -23.080484 
165.588531 51.810902 -52.583981 1.004115 17.614649 38.019260 52.110786 18.099567 -4.726076 -20.839844 0.000000 0.000000 -10.749211 -0.221486 48.810665 8.586096 -4.084739 0.307924 -4.754608 -0.109225 -0.002657 -59.213184 -101.021767 50.551247 -70.167526 -55.935238 47.996754 19.960306 -23.609795 40.523975 4.754608 0.109225 -0.002676 71.391670 12.806514 25.228586 119.600067 46.225922 -41.723579 18.399742 3.869271 -29.497110 2.905780 2.750675 5.957924 30.458555 -8.410402 7.518065 -3.221974 1.878042 14.172097 -1.544382 -16.623028 -18.191971 21.003180 9.565726 7.056750 -1.706860 29.231689 -23.055132 
167.019455 51.881634 -51.790142 1.234785 15.231003 29.124699 49.023212 16.554663 -5.400295 -20.839844 0.000000 0.000000 -8.464193 -0.889768 50.505142 8.586096 -4.084739 0.307924 -4.754608 -0.109225 -0.002657 88.985512 -75.631981 -96.957405 -76.349838 -50.913410 44.369507 21.645178 -22.072723 43.949772 4.754608 0.109225 -0.002676 68.795876 14.232215 21.641356 117.237000 42.416771 -43.616837 18.788982 -0.839697 -37.924713 0.896116 4.043884 6.723512 24.617464 -7.792991 6.216256 -4.543179 -1.275525 13.377088 -4.863007 -14.497225 -13.178699 21.726257 7.636224 10.776662 -2.405675 28.426239 -23.011126 
168.337952 51.871075 -50.951427 1.358959 14.039175 22.089531 45.930050 15.309855 -6.497149 -20.839844 0.000000 0.000000 -5.741799 -1.290360 48.547211 8.586096 -4.084739 0.307924 -4.754608 -0.109225 -0.002657 70.198181 -71.537781 -78.282066 -79.844200 -46.014881 43.889935 23.798546 -20.177721 48.136887 4.754608 0.109225 -0.002676 66.972366 13.476561 18.173311 113.044342 39.463779 -35.991493 6.293729 1.005019 -32.485992 -0.996132 4.568657 7.503647 20.050285 -7.275558 4.090258 -5.272217 -6.282520 11.797890 -6.590328 -13.783124 -10.138129 23.026186 6.826054 13.591478 -2.995590 27.864101 -23.324635 
169.805832 51.801403 -50.656368 -0.823722 13.553337 16.829231 44.911198 15.083537 -7.616432 -20.839844 0.000000 0.000000 -2.976278 -0.679233 42.592510 8.586096 -4.084739 0.307924 -4.754608 -0.109225 -0.002657 55.278847 -69.557823 -65.287521 -81.186760 -41.584167 46.980610 26.171894 -17.186140 55.104134 4.754608 0.109225 -0.002676 82.571220 11.730174 16.780748 61.353077 25.926048 42.685673 -15.370565 31.069027 37.378925 -2.232938 4.044579 7.513351 17.638956 -5.627008 1.076974 -6.047974 -11.755632 9.342228 -5.351436 -14.470253 -10.980869 24.891241 7.314297 13.842942 -3.565071 28.584927 -23.120714 
